<svg id="Camada_1" data-name="Camada 1" xmlns="http://www.w3.org/2000/svg" viewBox="0 0 300 300"><defs><style>.cls-1{fill:#fff;}</style></defs><path class="cls-1" d="M5.28,299.9H0v-5.27c.36-.79.78-1.55,1.06-2.37,7.65-22.52,15.21-45.07,23-67.55a10,10,0,0,0-.82-9A142.38,142.38,0,0,1,6,131.86c2.55-26.52,11.52-50.87,27.84-72C69.1,14.4,115.74-5.38,172.86,1.39,207.53,5.51,237,21.22,260.72,46.88c29.71,32.16,42.57,70.39,38.57,114a137.56,137.56,0,0,1-27.67,71.42c-28,37.07-65.46,57.14-111.82,59.86-26,1.52-50.84-4-74.14-15.85a6.66,6.66,0,0,0-5.53-.45C64.36,280.93,48.54,285.9,32.76,291,23.58,293.9,14.44,296.92,5.28,299.9Zm41-45.41c1.22-.32,2-.5,2.85-.75,11.25-3.56,22.51-7.05,33.72-10.74a8.24,8.24,0,0,1,7.69.92A114,114,0,0,0,138.32,261,117.32,117.32,0,0,0,248.91,211.5a114.23,114.23,0,0,0,7.61-118,114.19,114.19,0,0,0-49.14-49.51A117,117,0,0,0,86.75,50.73a114.49,114.49,0,0,0-44.44,58,112.81,112.81,0,0,0-2.67,66,109.29,109.29,0,0,0,17.23,37.2,7.88,7.88,0,0,1,1.05,8.2c-1.22,3.08-2.2,6.25-3.26,9.39C51.89,237.71,49.13,245.9,46.24,254.49Z"/><path class="cls-1" d="M192.91,216.38c-8.42,0-16.55-2.39-24.69-4.85-32.58-9.83-55.64-31.64-74.54-58.82-6.63-9.55-12.39-19.47-14.17-31.12s.1-22.5,6.59-32.49c4.29-6.61,10.74-9.33,18.09-10.6,2.21-.38,4.44-.63,6.67-.91,4.71-.58,8.42,1.25,10.33,5.48,4.51,10.05,8.79,20.19,12.95,30.38,1.86,4.54-.53,8.43-3,12-2.11,3-4.77,5.67-7,8.63a3.24,3.24,0,0,0-.37,2.92c11.83,16.77,26.07,30.77,45.24,39.09,2.06.9,3.29.64,4.66-1.16,2.95-3.89,6.14-7.59,9.19-11.39,4.14-5.16,7.44-6,13.55-3.34,5.52,2.45,11,5,16.44,7.63,4,1.89,7.85,3.92,11.79,5.84,3.23,1.58,4.63,4.1,4.8,7.7,1.05,22.15-17,33.31-32.56,34.8C195.62,216.26,194.35,216.29,192.91,216.38Z"/></svg>